<?xml version="1.0" standalone="no"?>
<!DOCTYPE svg PUBLIC "-//W3C//DTD SVG 20010904//EN"
 "http://www.w3.org/TR/2001/REC-SVG-20010904/DTD/svg10.dtd">
<svg version="1.0" xmlns="http://www.w3.org/2000/svg"
 width="120.000000pt" height="120.000000pt" viewBox="0 0 120.000000 120.000000"
 preserveAspectRatio="xMidYMid meet">
<metadata>
Created by potrace 1.11, written by Peter Selinger 2001-2013
</metadata>
<g transform="translate(0.000000,120.000000) scale(0.100000,-0.100000)"
fill="#000000" stroke="none">
<path d="M363 1177 c-18 -21 -18 -21 2 -8 11 8 8 2 -8 -13 -15 -15 -25 -31
-22 -36 3 -4 -2 -10 -10 -14 -8 -3 -12 -12 -9 -21 3 -8 1 -15 -5 -15 -6 0 -10
-3 -10 -7 1 -5 -3 -21 -10 -38 -6 -16 -11 -34 -12 -40 0 -5 -7 -13 -14 -18 -8
-4 -12 -14 -9 -22 4 -8 1 -15 -6 -15 -6 0 -8 -4 -5 -10 3 -5 1 -10 -5 -10 -6
0 -9 -3 -7 -7 8 -13 -12 -55 -23 -48 -5 3 -7 0 -4 -8 3 -8 -4 -31 -16 -51 -12
-22 -15 -35 -8 -31 7 4 2 -3 -11 -14 -13 -12 -18 -21 -12 -21 7 0 6 -9 -5 -24
-14 -22 -21 -42 -23 -69 -1 -5 -5 -5 -11 -2 -6 3 -7 -1 -4 -9 3 -9 1 -16 -6
-16 -6 0 -9 -4 -5 -9 3 -5 1 -12 -5 -16 -6 -4 -8 -10 -5 -15 3 -5 -1 -15 -9
-23 -8 -8 -12 -17 -9 -21 4 -3 1 -6 -5 -6 -7 0 -12 -5 -12 -11 0 -5 6 -7 13
-3 6 4 5 -1 -4 -12 -24 -30 -43 -77 -40 -101 1 -13 -3 -23 -10 -23 -7 0 -8 -4
-2 -12 5 -7 9 -24 9 -38 -1 -24 51 -86 63 -75 2 3 11 -1 19 -8 13 -10 14 -9 7
3 -6 12 -5 13 5 3 9 -8 19 -9 32 -2 10 5 18 6 18 1 0 -10 30 -9 48 2 6 4 12 3
12 -2 0 -10 30 -9 48 2 6 4 12 3 12 -2 0 -10 30 -10 46 0 5 4 16 3 24 -2 8 -5
21 -5 31 0 9 5 19 7 23 3 3 -3 17 -7 31 -7 14 -1 24 -4 23 -6 -1 -3 4 -15 11
-27 8 -16 8 -23 1 -23 -8 0 -8 -6 0 -20 8 -14 8 -20 0 -20 -8 0 -8 -6 0 -20 6
-11 7 -20 2 -20 -5 0 -9 -7 -9 -15 0 -8 3 -15 6 -15 4 0 8 -12 9 -27 1 -15 8
-30 15 -35 6 -4 56 -8 110 -8 80 0 97 3 97 15 0 8 4 15 9 15 4 0 8 23 7 50 -1
28 1 50 6 50 4 0 8 5 8 11 0 5 -4 8 -9 5 -9 -6 -8 65 2 81 4 6 15 10 25 8 9
-1 25 2 35 7 9 5 17 5 17 0 0 -10 30 -9 48 2 6 4 12 3 12 -2 0 -10 30 -9 48 2
6 4 12 3 12 -2 0 -10 36 -9 46 1 4 3 14 2 23 -3 10 -5 23 -5 31 0 8 5 21 5 31
-1 12 -6 20 -5 25 2 4 8 9 7 15 -2 7 -11 9 -11 9 -1 0 7 5 10 10 7 6 -3 10 -1
10 4 0 6 5 11 10 11 26 0 45 37 46 90 0 30 -2 57 -5 60 -9 8 -33 73 -34 92 -1
9 -6 14 -11 11 -5 -4 -7 3 -4 15 4 13 2 20 -5 19 -6 -1 -13 8 -15 21 -2 12 -8
22 -13 22 -5 0 -9 5 -9 11 0 5 6 7 12 3 7 -5 3 5 -10 20 -12 16 -19 32 -16 37
3 5 0 9 -6 9 -6 0 -8 5 -5 10 3 6 1 10 -4 10 -6 0 -11 9 -11 19 0 11 -4 23
-10 26 -5 3 -10 14 -10 23 0 9 -9 28 -19 41 -10 14 -17 31 -14 38 3 7 0 13 -7
13 -7 0 -10 7 -6 15 3 8 1 15 -4 15 -6 0 -10 7 -10 15 0 9 -7 27 -16 40 -9 13
-13 29 -9 35 3 5 0 13 -9 16 -9 3 -12 12 -9 21 5 12 3 14 -7 8 -10 -6 -12 -4
-7 8 3 8 -1 21 -9 27 -8 7 -14 23 -14 36 0 13 -4 24 -10 24 -5 0 -10 6 -10 14
0 8 -13 27 -28 44 -27 28 -32 30 -105 29 -72 0 -78 -2 -83 -24 -4 -12 -10 -21
-15 -18 -8 6 -4 -34 6 -43 2 -3 0 -11 -7 -19 -8 -11 -7 -12 6 -7 12 4 15 2 10
-9 -3 -8 -1 -18 5 -22 6 -3 11 -13 11 -22 0 -9 8 -22 18 -29 13 -10 14 -13 3
-14 -11 0 -9 -4 5 -15 10 -8 15 -15 10 -15 -5 0 -3 -7 4 -15 7 -8 9 -15 4 -15
-5 0 -4 -4 3 -8 6 -4 13 -16 15 -27 1 -11 9 -26 16 -34 7 -7 11 -18 9 -25 -2
-6 3 -17 10 -25 8 -7 17 -26 20 -42 3 -16 10 -29 15 -29 5 0 7 -4 3 -9 -3 -5
-1 -12 5 -16 6 -4 8 -11 5 -16 -4 -5 -1 -9 5 -9 6 0 8 -4 5 -10 -3 -5 -1 -10
4 -10 6 0 10 -3 9 -7 -4 -15 14 -53 24 -53 6 0 9 -3 5 -6 -3 -4 1 -20 9 -36 8
-16 12 -33 9 -38 -3 -5 1 -12 8 -17 19 -11 32 -53 17 -53 -6 0 -9 4 -5 10 3 5
-7 3 -22 -5 -17 -9 -29 -11 -31 -5 -2 6 -10 6 -23 0 -10 -6 -19 -7 -19 -2 0 5
-7 9 -15 9 -8 0 -15 -5 -15 -11 0 -6 -4 -6 -11 1 -6 6 -17 9 -24 6 -8 -2 -18
5 -25 16 -8 15 -8 21 0 21 6 0 8 5 3 13 -11 18 -12 37 -2 37 6 0 7 6 2 13 -4
6 -9 32 -10 57 -2 25 -5 51 -8 58 -2 6 1 12 7 12 7 0 7 4 1 13 -5 6 -9 29 -8
50 0 21 -4 42 -11 48 -7 5 -10 19 -7 29 5 19 -9 26 -39 21 -5 0 -8 4 -8 11 0
6 -3 8 -7 5 -3 -4 -13 -1 -21 6 -13 10 -14 9 -8 -1 6 -10 3 -13 -10 -11 -30 4
-74 -19 -74 -38 0 -13 -2 -15 -9 -5 -5 8 -8 1 -9 -20 -2 -91 -13 -285 -16
-303 -3 -11 -5 -24 -5 -28 -1 -5 -5 -5 -11 -2 -5 3 -10 0 -10 -7 0 -8 -3 -9
-8 -3 -8 12 -42 13 -60 2 -6 -5 -12 -4 -12 1 0 11 -30 9 -50 -3 -9 -5 -15 -4
-18 3 -2 7 -7 10 -12 7 -9 -5 -8 3 5 48 4 15 12 27 18 27 6 0 7 3 4 6 -3 4 -1
16 5 28 7 11 11 24 10 29 -1 4 3 7 9 7 5 0 8 4 4 9 -3 5 -1 12 5 16 6 4 8 11
5 16 -4 5 2 9 12 9 10 0 14 3 8 8 -7 4 -5 18 6 39 9 18 20 29 24 25 5 -4 5 -1
1 6 -4 7 2 28 13 48 12 19 17 33 12 29 -5 -3 -3 8 5 25 9 17 20 27 26 24 7 -4
8 -2 4 5 -9 14 2 53 14 46 4 -3 6 4 3 15 -3 11 0 20 6 20 6 0 10 3 9 8 -1 4 5
21 12 37 7 17 14 32 16 35 1 3 5 15 9 28 4 12 12 22 17 22 6 0 5 7 -2 15 -8
10 -9 15 -2 15 13 0 10 66 -3 77 -4 5 -5 0 -2 -10 4 -11 3 -16 -3 -12 -6 3
-10 12 -10 20 0 10 -20 13 -79 13 -69 0 -82 -3 -98 -21z m-128 -746 c3 -5 2
-12 -3 -15 -5 -3 -9 1 -9 9 0 17 3 19 12 6z m752 -6 c0 -8 -4 -12 -9 -9 -5 3
-6 10 -3 15 9 13 12 11 12 -6z m-462 -153 c-3 -3 -11 0 -18 7 -9 10 -8 11 6 5
10 -3 15 -9 12 -12z"/>
</g>
</svg>
